<?xml version="1.0" encoding="UTF-8"?>
<svg xmlns="http://www.w3.org/2000/svg" xmlns:xlink="http://www.w3.org/1999/xlink" width="100pt" height="100pt" viewBox="0 0 100 100" version="1.1">
<g id="surface5106574">
<path style="fill-rule:nonzero;fill:rgb(0%,0%,0%);fill-opacity:1;stroke-width:36;stroke-linecap:butt;stroke-linejoin:round;stroke:rgb(100%,100%,100%);stroke-opacity:1;stroke-miterlimit:10;" d="M 142.760454 36.120584 C 143.709843 36.120584 144.480714 36.891455 144.480714 37.840844 L 144.480714 55.043441 C 144.480714 55.992829 143.709843 56.7637 142.760454 56.7637 L 29.239546 56.7637 C 28.290157 56.7637 27.519286 55.992829 27.519286 55.043441 L 27.519286 37.840844 C 27.519286 36.891455 28.290157 36.120584 29.239546 36.120584 Z M 30.959805 48.162402 L 126.417988 48.162402 C 126.726336 48.154287 127.018456 48.316576 127.17263 48.584352 C 127.334918 48.852129 127.334918 49.18482 127.17263 49.452597 C 127.018456 49.720373 126.726336 49.882662 126.417988 49.882662 L 30.959805 49.882662 L 30.959805 53.323181 L 141.040195 53.323181 L 141.040195 39.561104 L 30.959805 39.561104 Z M 135.019286 48.162402 C 135.327634 48.154287 135.619754 48.316576 135.773928 48.584352 C 135.928102 48.852129 135.928102 49.18482 135.773928 49.452597 C 135.619754 49.720373 135.327634 49.882662 135.019286 49.882662 L 131.578767 49.882662 C 131.270418 49.882662 130.978299 49.720373 130.824124 49.452597 C 130.66995 49.18482 130.66995 48.852129 130.824124 48.584352 C 130.978299 48.316576 131.270418 48.154287 131.578767 48.162402 Z M 142.760454 75.678442 C 143.709843 75.678442 144.480714 76.449313 144.480714 77.398702 L 144.480714 94.601298 C 144.480714 95.550687 143.709843 96.321558 142.760454 96.321558 L 29.239546 96.321558 C 28.290157 96.321558 27.519286 95.550687 27.519286 94.601298 L 27.519286 77.398702 C 27.519286 76.449313 28.290157 75.678442 29.239546 75.678442 Z M 30.959805 92.881039 L 141.040195 92.881039 L 141.040195 79.118961 L 30.959805 79.118961 Z M 116.09643 87.72026 C 116.412893 87.712145 116.696898 87.882548 116.851072 88.150325 C 117.013361 88.418101 117.013361 88.742678 116.851072 89.010454 C 116.696898 89.278231 116.412893 89.440519 116.09643 89.440519 L 38.700974 89.440519 C 38.392625 89.440519 38.100506 89.278231 37.946332 89.010454 C 37.792157 88.742678 37.792157 88.418101 37.946332 88.150325 C 38.100506 87.882548 38.392625 87.712145 38.700974 87.72026 Z M 126.417988 87.72026 C 126.726336 87.712145 127.018456 87.882548 127.17263 88.150325 C 127.334918 88.418101 127.334918 88.742678 127.17263 89.010454 C 127.018456 89.278231 126.726336 89.440519 126.417988 89.440519 L 121.257209 89.440519 C 120.94886 89.440519 120.664855 89.278231 120.502566 89.010454 C 120.348392 88.742678 120.348392 88.418101 120.502566 88.150325 C 120.664855 87.882548 120.94886 87.712145 121.257209 87.72026 Z M 135.019286 87.72026 C 135.327634 87.712145 135.619754 87.882548 135.773928 88.150325 C 135.928102 88.418101 135.928102 88.742678 135.773928 89.010454 C 135.619754 89.278231 135.327634 89.440519 135.019286 89.440519 L 131.578767 89.440519 C 131.270418 89.440519 130.978299 89.278231 130.824124 89.010454 C 130.66995 88.742678 130.66995 88.418101 130.824124 88.150325 C 130.978299 87.882548 131.270418 87.712145 131.578767 87.72026 Z M 142.760454 115.2363 C 143.709843 115.2363 144.480714 116.007171 144.480714 116.956559 L 144.480714 134.159156 C 144.480714 135.108545 143.709843 135.879416 142.760454 135.879416 L 29.239546 135.879416 C 28.290157 135.879416 27.519286 135.108545 27.519286 134.159156 L 27.519286 116.956559 C 27.519286 116.007171 28.290157 115.2363 29.239546 115.2363 Z M 30.959805 132.438896 L 141.040195 132.438896 L 141.040195 128.998377 L 45.582012 128.998377 C 45.273664 129.006492 44.981544 128.844203 44.82737 128.576427 C 44.665082 128.30865 44.665082 127.975959 44.82737 127.708182 C 44.981544 127.440406 45.273664 127.278117 45.582012 127.278117 L 141.040195 127.278117 L 141.040195 118.676819 L 30.959805 118.676819 Z M 40.421233 127.278117 C 40.729582 127.278117 41.021701 127.440406 41.175876 127.708182 C 41.33005 127.975959 41.33005 128.30865 41.175876 128.576427 C 41.021701 128.844203 40.729582 129.006492 40.421233 128.998377 L 36.980714 128.998377 C 36.672366 129.006492 36.380246 128.844203 36.226072 128.576427 C 36.071898 128.30865 36.071898 127.975959 36.226072 127.708182 C 36.380246 127.440406 36.672366 127.278117 36.980714 127.278117 Z M 40.421233 127.278117 " transform="matrix(0.481395,0,0,0.481395,8.6,8.6)"/>
<path style=" stroke:none;fill-rule:nonzero;fill:rgb(0%,0%,0%);fill-opacity:1;" d="M 22.675781 25.988281 C 22.21875 25.988281 21.847656 26.359375 21.847656 26.816406 L 21.847656 35.097656 C 21.847656 35.554688 22.21875 35.925781 22.675781 35.925781 L 77.324219 35.925781 C 77.78125 35.925781 78.152344 35.554688 78.152344 35.097656 L 78.152344 26.816406 C 78.152344 26.359375 77.78125 25.988281 77.324219 25.988281 Z M 23.503906 27.644531 L 76.496094 27.644531 L 76.496094 34.269531 L 23.503906 34.269531 L 23.503906 32.613281 L 69.457031 32.613281 C 69.605469 32.613281 69.746094 32.535156 69.820312 32.40625 C 69.898438 32.277344 69.898438 32.117188 69.820312 31.988281 C 69.746094 31.859375 69.605469 31.78125 69.457031 31.785156 L 23.503906 31.785156 Z M 71.941406 31.785156 C 71.792969 31.78125 71.652344 31.859375 71.578125 31.988281 C 71.503906 32.117188 71.503906 32.277344 71.578125 32.40625 C 71.652344 32.535156 71.792969 32.613281 71.941406 32.613281 L 73.597656 32.613281 C 73.746094 32.613281 73.886719 32.535156 73.960938 32.40625 C 74.035156 32.277344 74.035156 32.117188 73.960938 31.988281 C 73.886719 31.859375 73.746094 31.78125 73.597656 31.785156 Z M 22.675781 45.03125 C 22.21875 45.03125 21.847656 45.402344 21.847656 45.859375 L 21.847656 54.140625 C 21.847656 54.597656 22.21875 54.96875 22.675781 54.96875 L 77.324219 54.96875 C 77.78125 54.96875 78.152344 54.597656 78.152344 54.140625 L 78.152344 45.859375 C 78.152344 45.402344 77.78125 45.03125 77.324219 45.03125 Z M 23.503906 46.6875 L 76.496094 46.6875 L 76.496094 53.3125 L 23.503906 53.3125 Z M 27.230469 50.828125 C 27.082031 50.824219 26.941406 50.90625 26.867188 51.035156 C 26.792969 51.164062 26.792969 51.320312 26.867188 51.449219 C 26.941406 51.578125 27.082031 51.65625 27.230469 51.65625 L 64.488281 51.65625 C 64.640625 51.65625 64.777344 51.578125 64.851562 51.449219 C 64.929688 51.320312 64.929688 51.164062 64.851562 51.035156 C 64.777344 50.90625 64.640625 50.824219 64.488281 50.828125 Z M 66.972656 50.828125 C 66.824219 50.824219 66.6875 50.90625 66.609375 51.035156 C 66.535156 51.164062 66.535156 51.320312 66.609375 51.449219 C 66.6875 51.578125 66.824219 51.65625 66.972656 51.65625 L 69.457031 51.65625 C 69.605469 51.65625 69.746094 51.578125 69.820312 51.449219 C 69.898438 51.320312 69.898438 51.164062 69.820312 51.035156 C 69.746094 50.90625 69.605469 50.824219 69.457031 50.828125 Z M 71.941406 50.828125 C 71.792969 50.824219 71.652344 50.90625 71.578125 51.035156 C 71.503906 51.164062 71.503906 51.320312 71.578125 51.449219 C 71.652344 51.578125 71.792969 51.65625 71.941406 51.65625 L 73.597656 51.65625 C 73.746094 51.65625 73.886719 51.578125 73.960938 51.449219 C 74.035156 51.320312 74.035156 51.164062 73.960938 51.035156 C 73.886719 50.90625 73.746094 50.824219 73.597656 50.828125 Z M 22.675781 64.074219 C 22.21875 64.074219 21.847656 64.445312 21.847656 64.902344 L 21.847656 73.183594 C 21.847656 73.640625 22.21875 74.011719 22.675781 74.011719 L 77.324219 74.011719 C 77.78125 74.011719 78.152344 73.640625 78.152344 73.183594 L 78.152344 64.902344 C 78.152344 64.445312 77.78125 64.074219 77.324219 64.074219 Z M 23.503906 65.730469 L 76.496094 65.730469 L 76.496094 69.871094 L 30.542969 69.871094 C 30.394531 69.871094 30.253906 69.949219 30.179688 70.078125 C 30.101562 70.207031 30.101562 70.367188 30.179688 70.496094 C 30.253906 70.625 30.394531 70.703125 30.542969 70.699219 L 76.496094 70.699219 L 76.496094 72.355469 L 23.503906 72.355469 Z M 26.402344 69.871094 C 26.253906 69.871094 26.113281 69.949219 26.039062 70.078125 C 25.964844 70.207031 25.964844 70.367188 26.039062 70.496094 C 26.113281 70.625 26.253906 70.703125 26.402344 70.699219 L 28.058594 70.699219 C 28.207031 70.703125 28.347656 70.625 28.421875 70.496094 C 28.496094 70.367188 28.496094 70.207031 28.421875 70.078125 C 28.347656 69.949219 28.207031 69.871094 28.058594 69.871094 Z M 26.402344 69.871094 "/>
</g>
</svg>
